<?xml version="1.0" encoding="UTF-8"?><!DOCTYPE svg PUBLIC "-//W3C//DTD SVG 1.1//EN" "http://www.w3.org/Graphics/SVG/1.1/DTD/svg11.dtd">
<svg>
    <defs>
        <svg id="truck" xmlns="http://www.w3.org/2000/svg" xmlns:xlink="http://www.w3.org/1999/xlink" version="1.1" width="24" height="24" viewBox="0 0 24 24"><path d="M18,18.5C17.17,18.5 16.5,17.83 16.5,17C16.5,16.17 17.17,15.5 18,15.5C18.83,15.5 19.5,16.17 19.5,17C19.5,17.83 18.83,18.5 18,18.5M19.5,9.5L21.46,12H17V9.5M6,18.5C5.17,18.5 4.5,17.83 4.5,17C4.5,16.17 5.17,15.5 6,15.5C6.83,15.5 7.5,16.17 7.5,17C7.5,17.83 6.83,18.5 6,18.5M20,8H17V4H3C1.89,4 1,4.89 1,6V17H3C3,18.66 4.34,20 6,20C7.66,20 9,18.66 9,17H15C15,18.66 16.34,20 18,20C19.66,20 21,18.66 21,17H23V12L20,8Z" /></svg>
        <svg id="account-multiple" xmlns="http://www.w3.org/2000/svg" xmlns:xlink="http://www.w3.org/1999/xlink" version="1.1" width="24" height="24" viewBox="0 0 24 24"><path d="M16,13C15.71,13 15.38,13 15.03,13.05C16.19,13.89 17,15 17,16.5V19H23V16.5C23,14.17 18.33,13 16,13M8,13C5.67,13 1,14.17 1,16.5V19H15V16.5C15,14.17 10.33,13 8,13M8,11C9.66,11 11,9.66 11,8C11,6.34 9.66,5 8,5C6.34,5 5,6.34 5,8C5,9.66 6.34,11 8,11M16,11C17.66,11 19,9.66 19,8C19,6.34 17.66,5 16,5C14.34,5 13,6.34 13,8C13,9.66 14.34,11 16,11Z" /></svg>
        <svg id="map-marker-radius" xmlns="http://www.w3.org/2000/svg" xmlns:xlink="http://www.w3.org/1999/xlink" version="1.1" width="24" height="24" viewBox="0 0 24 24"><path d="M12,2C15.31,2 18,4.66 18,7.95C18,12.41 12,19 12,19C12,19 6,12.41 6,7.95C6,4.66 8.69,2 12,2M12,6A2,2 0 0,0 10,8A2,2 0 0,0 12,10A2,2 0 0,0 14,8A2,2 0 0,0 12,6M20,19C20,21.21 16.42,23 12,23C7.58,23 4,21.21 4,19C4,17.71 5.22,16.56 7.11,15.83L7.75,16.74C6.67,17.19 6,17.81 6,18.5C6,19.88 8.69,21 12,21C15.31,21 18,19.88 18,18.5C18,17.81 17.33,17.19 16.25,16.74L16.89,15.83C18.78,16.56 20,17.71 20,19Z" /></svg>
        <svg id="alarm-bell" xmlns="http://www.w3.org/2000/svg" xmlns:xlink="http://www.w3.org/1999/xlink" version="1.1" width="24" height="24" viewBox="0 0 24 24"><path d="M15,18.66V22H5V18.66C8.09,20.45 11.91,20.45 15,18.66M22,4A2,2 0 0,0 20,2C19.69,2 19.39,2.07 19.12,2.21C18.82,2.36 18.56,2.58 18.36,2.85C17.72,3.75 17.94,5 18.85,5.64C19.18,5.87 19.59,6 20,6C20.08,6 20.16,6 20.24,6C21.97,10.43 20.66,15.46 17,18.5C16.68,18.75 16.35,19 16,19.22V21H17V19.74C20.14,17.5 22,13.86 22,10C22,8.5 21.72,7 21.17,5.62C21.69,5.24 22,4.64 22,4M18,10A8,8 0 0,1 10,18A8,8 0 0,1 2,10A8,8 0 0,1 10,2A8,8 0 0,1 18,10Z" /></svg>
        <svg id="account-multiple-outline" xmlns="http://www.w3.org/2000/svg" xmlns:xlink="http://www.w3.org/1999/xlink" version="1.1" width="24" height="24" viewBox="0 0 24 24"><path d="M16.5,6.5A2,2 0 0,1 18.5,8.5A2,2 0 0,1 16.5,10.5A2,2 0 0,1 14.5,8.5A2,2 0 0,1 16.5,6.5M16.5,12A3.5,3.5 0 0,0 20,8.5A3.5,3.5 0 0,0 16.5,5A3.5,3.5 0 0,0 13,8.5A3.5,3.5 0 0,0 16.5,12M7.5,6.5A2,2 0 0,1 9.5,8.5A2,2 0 0,1 7.5,10.5A2,2 0 0,1 5.5,8.5A2,2 0 0,1 7.5,6.5M7.5,12A3.5,3.5 0 0,0 11,8.5A3.5,3.5 0 0,0 7.5,5A3.5,3.5 0 0,0 4,8.5A3.5,3.5 0 0,0 7.5,12M21.5,17.5H14V16.25C14,15.79 13.8,15.39 13.5,15.03C14.36,14.73 15.44,14.5 16.5,14.5C18.94,14.5 21.5,15.71 21.5,16.25M12.5,17.5H2.5V16.25C2.5,15.71 5.06,14.5 7.5,14.5C9.94,14.5 12.5,15.71 12.5,16.25M16.5,13C15.3,13 13.43,13.34 12,14C10.57,13.33 8.7,13 7.5,13C5.33,13 1,14.08 1,16.25V19H23V16.25C23,14.08 18.67,13 16.5,13Z" /></svg>
        <svg id="radio-handheld" xmlns="http://www.w3.org/2000/svg" xmlns:xlink="http://www.w3.org/1999/xlink" version="1.1" width="24" height="24" viewBox="0 0 24 24"><path d="M9,2A1,1 0 0,0 8,3C8,8.67 8,14.33 8,20C8,21.11 8.89,22 10,22H15C16.11,22 17,21.11 17,20V9C17,7.89 16.11,7 15,7H10V3A1,1 0 0,0 9,2M10,9H15V13H10V9Z" /></svg>
        <svg id="group" xmlns="http://www.w3.org/2000/svg" xmlns:xlink="http://www.w3.org/1999/xlink" version="1.1" width="24" height="24" viewBox="0 0 24 24"><path d="M8,8V12H13V8H8M1,1H5V2H19V1H23V5H22V19H23V23H19V22H5V23H1V19H2V5H1V1M5,19V20H19V19H20V5H19V4H5V5H4V19H5M6,6H15V10H18V18H8V14H6V6M15,14H10V16H16V12H15V14Z" /></svg>

        <svg id="home" xmlns="http://www.w3.org/2000/svg" xmlns:xlink="http://www.w3.org/1999/xlink" version="1.1" width="24" height="24" viewBox="0 0 24 24"><path d="M10,20V14H14V20H19V12H22L12,3L2,12H5V20H10Z" /></svg>
        <svg id="map" xmlns="http://www.w3.org/2000/svg" xmlns:xlink="http://www.w3.org/1999/xlink" version="1.1" width="24" height="24" viewBox="0 0 24 24"><path d="M15,19L9,16.89V5L15,7.11M20.5,3C20.44,3 20.39,3 20.34,3L15,5.1L9,3L3.36,4.9C3.15,4.97 3,5.15 3,5.38V20.5A0.5,0.5 0 0,0 3.5,21C3.55,21 3.61,21 3.66,20.97L9,18.9L15,21L20.64,19.1C20.85,19 21,18.85 21,18.62V3.5A0.5,0.5 0 0,0 20.5,3Z" /></svg>
        <svg id="chart-line" xmlns="http://www.w3.org/2000/svg" xmlns:xlink="http://www.w3.org/1999/xlink" version="1.1" width="24" height="24" viewBox="0 0 24 24"><path d="M16,11.78L20.24,4.45L21.97,5.45L16.74,14.5L10.23,10.75L5.46,19H22V21H2V3H4V17.54L9.5,8L16,11.78Z" /></svg>
        <svg id="settings" xmlns="http://www.w3.org/2000/svg" xmlns:xlink="http://www.w3.org/1999/xlink" version="1.1" width="24" height="24" viewBox="0 0 24 24"><path d="M12,15.5A3.5,3.5 0 0,1 8.5,12A3.5,3.5 0 0,1 12,8.5A3.5,3.5 0 0,1 15.5,12A3.5,3.5 0 0,1 12,15.5M19.43,12.97C19.47,12.65 19.5,12.33 19.5,12C19.5,11.67 19.47,11.34 19.43,11L21.54,9.37C21.73,9.22 21.78,8.95 21.66,8.73L19.66,5.27C19.54,5.05 19.27,4.96 19.05,5.05L16.56,6.05C16.04,5.66 15.5,5.32 14.87,5.07L14.5,2.42C14.46,2.18 14.25,2 14,2H10C9.75,2 9.54,2.18 9.5,2.42L9.13,5.07C8.5,5.32 7.96,5.66 7.44,6.05L4.95,5.05C4.73,4.96 4.46,5.05 4.34,5.27L2.34,8.73C2.21,8.95 2.27,9.22 2.46,9.37L4.57,11C4.53,11.34 4.5,11.67 4.5,12C4.5,12.33 4.53,12.65 4.57,12.97L2.46,14.63C2.27,14.78 2.21,15.05 2.34,15.27L4.34,18.73C4.46,18.95 4.73,19.03 4.95,18.95L7.44,17.94C7.96,18.34 8.5,18.68 9.13,18.93L9.5,21.58C9.54,21.82 9.75,22 10,22H14C14.25,22 14.46,21.82 14.5,21.58L14.87,18.93C15.5,18.67 16.04,18.34 16.56,17.94L19.05,18.95C19.27,19.03 19.54,18.95 19.66,18.73L21.66,15.27C21.78,15.05 21.73,14.78 21.54,14.63L19.43,12.97Z" /></svg>
        <svg id="mail" xmlns="http://www.w3.org/2000/svg" xmlns:xlink="http://www.w3.org/1999/xlink" version="1.1" width="24" height="24" viewBox="0 0 24 24"><path d="M20,8L12,13L4,8V6L12,11L20,6M20,4H4C2.89,4 2,4.89 2,6V18A2,2 0 0,0 4,20H20A2,2 0 0,0 22,18V6C22,4.89 21.1,4 20,4Z" /></svg>
        <svg id="account-circle" xmlns="http://www.w3.org/2000/svg" xmlns:xlink="http://www.w3.org/1999/xlink" version="1.1" width="24" height="24" viewBox="0 0 24 24"><path d="M12,19.2C9.5,19.2 7.29,17.92 6,16C6.03,14 10,12.9 12,12.9C14,12.9 17.97,14 18,16C16.71,17.92 14.5,19.2 12,19.2M12,5A3,3 0 0,1 15,8A3,3 0 0,1 12,11A3,3 0 0,1 9,8A3,3 0 0,1 12,5M12,2A10,10 0 0,0 2,12A10,10 0 0,0 12,22A10,10 0 0,0 22,12C22,6.47 17.5,2 12,2Z" /></svg>


        <!--simphone number-->
        <svg id="sim-card" xmlns="http://www.w3.org/2000/svg" xmlns:xlink="http://www.w3.org/1999/xlink" version="1.1" width="24" height="24" viewBox="0 0 24 24"><path d="M20,4A2,2 0 0,0 18,2H10L4,8V20A2,2 0 0,0 6,22H18C19.11,22 20,21.1 20,20V4M9,19H7V17H9V19M17,19H15V17H17V19M9,15H7V11H9V15M13,19H11V15H13V19M13,13H11V11H13V13M17,15H15V11H17V15Z" /></svg>
    </defs>
</svg>
